<?xml version="1.0" encoding="UTF-8" standalone="no"?>
<svg
   version="1.1"
   id="Layer_1"
   x="0px"
   y="0px"
   width="1468.0007"
   viewBox="0 0 1468.0007 534.69733"
   enable-background="new 0 0 1495 1405"
   xml:space="preserve"
   sodipodi:docname="ioc_logo_black_2.svg"
   height="534.69733"
   inkscape:version="1.4.2 (ebf0e940, 2025-05-08)"
   xmlns:inkscape="http://www.inkscape.org/namespaces/inkscape"
   xmlns:sodipodi="http://sodipodi.sourceforge.net/DTD/sodipodi-0.dtd"
   xmlns="http://www.w3.org/2000/svg"
   xmlns:svg="http://www.w3.org/2000/svg"><defs
   id="defs107" /><sodipodi:namedview
   id="namedview107"
   pagecolor="#ffffff"
   bordercolor="#000000"
   borderopacity="0.25"
   inkscape:showpageshadow="2"
   inkscape:pageopacity="0.0"
   inkscape:pagecheckerboard="true"
   inkscape:deskcolor="#d1d1d1"
   inkscape:zoom="0.675"
   inkscape:cx="534.07407"
   inkscape:cy="717.77778"
   inkscape:window-width="2560"
   inkscape:window-height="1322"
   inkscape:window-x="0"
   inkscape:window-y="30"
   inkscape:window-maximized="0"
   inkscape:current-layer="Layer_1" />

<path
   fill="#0077D4"
   opacity="1"
   stroke="none"
   d="m 1467.5322,0 c 0.4686,178.13138 0.4686,356.26276 0.4686,534.69733 -489.32437,0 -978.3663,0 -1468.0008,0 C 0,356.78162 0,178.85947 3.85e-4,0.468657 489.02168,0 978.04258,0 1467.5322,0 M 831.50077,16.000877 c -32.41986,0 -64.83966,0 -97.16931,0 0,168.020483 0,335.394453 0,502.674903 239.36194,0 478.39384,0 717.33854,0 0,-167.69769 0,-335.07162 0,-502.674903 -206.6099,0 -412.8895,0 -620.16923,0 m -567,398.134833 c -36.27245,0 -72.54491,0 -109.04274,0 0,5.23285 0,9.94592 0,14.70114 141.00691,0 281.69203,0 422.28664,0 0,-5.04309 0,-9.74923 0,-14.70108 -104.35831,0 -208.30109,0 -313.2439,-6e-5 m -1.99994,-24.77533 c -29.58188,0 -59.16376,0 -88.7384,0 0,5.48996 0,10.21225 0,14.89975 128.76047,0 257.11926,0 385.47674,0 0,-5.11044 0,-9.83087 0,-14.89947 -98.84665,0 -197.29251,0 -296.73834,-2.8e-4 m -11.985,-234.39557 c 37.62392,-11.43104 75.23888,-22.89193 112.89616,-34.21201 2.05674,-0.61827 4.62751,-0.5956 6.68854,0.0258 51.48148,15.52089 102.92532,31.16655 154.37985,46.77676 5.172,1.56903 10.36976,3.05291 16.11652,4.74109 0,-4.49969 -0.2641,-8.32466 0.0802,-12.09407 0.29742,-3.25641 -1.34302,-4.26327 -3.98157,-5.07275 -55.49768,-17.02614 -110.97403,-34.12203 -166.49417,-51.0745 -2.186,-0.66748 -4.93356,-0.61494 -7.13238,0.0506 -23.67286,7.16511 -47.2822,14.5397 -70.92026,21.8201 -31.56613,9.72218 -63.1526,19.37863 -94.68508,29.20858 -1.65692,0.51653 -3.94602,2.25104 -4.12611,3.65181 -0.54532,4.24158 -0.19719,8.59803 -0.19719,13.62561 19.21833,-5.88363 37.89926,-11.60276 57.37549,-17.44699 m 255.98494,224.9003 c 11.13702,0 22.27399,0 33.75171,0 0,-5.11535 0,-9.84765 0,-14.64456 -115.75003,0 -231.27747,0 -346.83615,0 0,4.97244 0,9.56 0,14.6445 104.21475,0 208.14959,0 313.08444,6e-5 m 2,-183.69455 c 10.58319,0 21.16638,0 31.70007,0 0,-5.31233 0,-9.86506 0,-14.47989 -115.81469,0 -231.21649,0 -346.79388,0 0,4.87473 0,9.44431 0,14.47992 104.88537,0 209.48959,0 315.09381,-3e-5 m -0.73547,-24.93022 c -45.64924,-14.1006 -91.28751,-28.23701 -136.97742,-42.20453 -2.49527,-0.7628 -5.6181,-0.77369 -8.11685,-0.0257 -29.24402,8.75426 -58.42243,17.72762 -87.62232,26.62946 -17.2301,5.25273 -34.46756,10.48114 -51.7017,15.7205 13.71186,0.67328 27.30867,0.6901 40.90519,0.63719 0.95435,-0.004 1.90781,-0.51878 2.85968,-0.80281 31.79486,-9.48752 63.57477,-19.02604 95.41245,-28.3676 2.51767,-0.73872 5.63098,-0.76345 8.13867,-0.0163 25.12137,7.48441 50.16577,15.2267 75.25058,22.83455 7.45612,2.26134 14.87412,5.62671 22.48087,6.1954 13.07422,0.97745 26.28305,0.15512 39.37085,-0.60011 m -12.41776,148.25957 c 6.1e-4,8.48828 -0.11478,16.97867 0.0386,25.46417 0.12272,6.79321 3.41431,10.96536 9.02115,12.01804 9.93067,1.86447 16.2251,-3.27722 16.23304,-13.43811 0.0326,-41.94208 0.0277,-83.88419 0.003,-125.82628 -0.005,-9.10636 -4.19195,-13.1145 -13.18225,-12.82875 -8.15506,0.2592 -12.09744,4.67442 -12.10385,13.74881 -0.0236,33.28735 -0.009,66.57473 -0.009,100.86212 m -266.9827,-79.00008 c -3e-5,33.99496 0.0173,67.98996 -0.0364,101.98483 -0.004,2.45038 1.09722,6.30899 -2.83813,6.25748 -4.27046,-0.0559 -2.37265,-4.09134 -2.37837,-6.32044 -0.11354,-44.15988 -0.0846,-88.32006 -0.0846,-132.48021 0,-1.61131 -3e-5,-3.22262 -3e-5,-4.76266 -3.49383,0 -6.3873,0 -9.15639,0 -0.22586,0.66749 -0.42115,0.97536 -0.4214,1.2834 -0.0366,46.15878 -0.12445,92.31772 -0.0218,138.47626 0.0184,8.28436 4.82006,12.41095 13.08757,12.22925 7.73764,-0.17002 11.3687,-4.1435 11.37062,-12.54914 0.0103,-44.99334 0.007,-89.98671 -0.005,-134.98005 -4e-4,-1.45571 -0.1487,-2.9114 -0.23207,-4.44075 -3.18605,0 -6.05458,0 -9.28362,0 0,11.68652 0,22.99426 -2.4e-4,35.30203 m 49.79054,52.0021 c 0,-5.54876 0,-11.09753 0,-16.64627 0.22702,-0.0127 0.45407,-0.0253 0.68109,-0.0379 2.73972,27.05496 5.47944,54.10992 8.21738,81.14728 2.89725,0 5.17688,0 7.64557,0 0,-50.7508 0,-101.31137 0,-151.75412 -2.71164,0 -5.10016,0 -7.75067,0 0,23.66231 0,46.96081 0,70.25931 -0.25903,0.0204 -0.51804,0.0409 -0.77707,0.0614 -2.66595,-23.49634 -5.33194,-46.99268 -7.98886,-70.409 -2.77728,0 -4.86151,0 -6.93295,0 0,50.81378 0,101.34952 0,151.67471 2.49011,0 4.56964,0 6.90554,0 0,-21.33578 0,-42.31601 -3e-5,-64.29535 m 117.67972,-50.0476 c 0,2.44345 0,4.8869 0,7.42645 3.47894,0 6.38541,0 9.76889,0 0,-5.24008 0.0503,-10.20387 -0.012,-15.16626 -0.0897,-7.14807 0.19778,-14.3427 -0.53693,-21.42815 -0.63369,-6.11177 -5.0148,-8.68405 -12.05429,-8.33786 -6.1369,0.30182 -11.04898,3.99187 -11.00357,9.38739 0.1561,18.55495 -2.34311,37.35991 4.00046,55.44289 8.31137,23.69232 11.58041,48.03128 9.80429,73.05353 -0.14395,2.02823 -0.75671,4.02316 -1.15161,6.03354 -0.7352,-0.01 -1.4704,-0.0195 -2.20563,-0.0292 -0.42651,-2.086 -1.19974,-4.16834 -1.22183,-6.25861 -0.12103,-11.43826 -0.0577,-22.87844 -0.0577,-34.35427 -3.4089,0 -6.2702,0 -9.11331,0 -0.0961,0.8742 -0.19647,1.36343 -0.19699,1.85281 -0.0128,11.99136 -0.0607,23.98291 -10e-4,35.97397 0.0336,6.8114 3.61573,10.59607 10.18976,11.03329 7.81442,0.51969 13.246,-2.99743 13.319,-10.10064 0.19763,-19.2305 2.36609,-38.72733 -4.05575,-57.42991 -8.03092,-23.38879 -12.10196,-47.2516 -10.06989,-71.99115 0.12875,-1.56796 1.26911,-3.05284 1.93887,-4.57635 0.88608,1.49971 2.48896,2.9763 2.53818,4.50299 0.25754,7.98595 0.12094,15.98463 0.12143,24.96558 m 67.03223,93.02447 c 0,-9.10626 0,-18.21255 0,-27.29693 -3.565,0 -6.47071,0 -9.73578,0 0,12.47366 0.0665,24.60742 -0.0957,36.73812 -0.0176,1.31348 -1.35886,2.60926 -2.08616,3.91321 -1.22659,-1.1048 -2.7825,-2.01849 -3.57122,-3.37741 -0.58689,-1.0112 -0.21125,-2.59909 -0.21143,-3.93014 -0.005,-40.48771 -0.0204,-80.97544 0.0301,-121.46308 0.003,-2.79329 -0.92242,-7.05084 3.36209,-6.9214 4.25379,0.12848 2.4437,4.38223 2.49225,6.84088 0.19614,9.93762 0.0814,19.88135 0.0814,29.8523 3.53333,0 6.44129,0 9.67844,0 0,-11.45378 0.0117,-22.58382 -0.0243,-33.7137 -0.003,-0.80945 -0.32876,-1.62404 -0.54397,-2.42565 -1.79483,-6.68539 -6.50452,-9.57737 -14.11008,-8.67488 -5.63403,0.66855 -9.23977,4.70171 -9.25021,11.09003 -0.0711,43.48666 -0.072,86.97354 -6.1e-4,130.4602 0.01,6.03501 3.58282,9.76441 9.28506,10.43845 7.27497,0.85995 12.41071,-1.68851 13.74469,-7.67148 0.92627,-4.15426 0.67865,-8.57028 0.95551,-13.85852 m -134.48856,6.01648 c 0,5.11453 0,10.22907 0,15.34558 8.24042,0 15.81241,0 23.34275,0 0,-2.75287 0,-5.16308 0,-8.04712 -4.36088,0 -8.43277,0 -12.44443,0 0,-22.93167 0,-45.37445 0,-67.97406 3.30258,-0.15771 6.35647,-0.30355 9.37082,-0.44751 0,-3.09588 0,-5.5415 0,-8.27816 -3.26599,-0.19153 -6.32328,-0.37082 -9.40009,-0.55124 0,-19.66893 0,-38.94159 0,-58.81488 3.26657,0 6.31528,0 9.37048,0 0,-2.86966 0,-5.1346 0,-7.5259 -6.80129,0 -13.33499,0 -20.23931,0 0,45.34986 0,90.32256 -2.2e-4,136.29329 z"
   id="path2"
   style="fill:#000000;fill-opacity:1" />
















































































<path
   fill="#0077D4"
   opacity="1"
   stroke="none"
   d="m 1040.9468,425.03784 c -22.6727,-7.77472 -42.48873,-19.36767 -60.01012,-35.38742 -24.46209,-22.36566 -40.34491,-49.68158 -48.57092,-81.39117 -2.84558,-10.96903 -3.36206,-22.60901 -4.28473,-33.99579 -1.73431,-21.40225 1.70954,-42.16812 8.8866,-62.35114 6.43048,-18.08357 15.63208,-34.55653 27.91601,-49.37698 15.8338,-19.10341 34.63143,-34.44977 57.10926,-44.90782 16.6878,-7.76425 34.0713,-13.6928 52.7149,-14.59725 10.7497,-0.5215 21.58,-1.5914 32.2609,-0.82966 18.0478,1.28715 35.5841,5.61991 52.2433,12.87041 21.0959,9.18151 39.6026,22.12667 55.3325,38.97064 19.2693,20.63411 32.2229,44.67418 39.5283,71.94514 4.8368,18.05574 5.8988,36.43611 4.7412,54.84099 -1.146,18.22171 -5.7685,35.86145 -13.0094,52.7135 -9.726,22.63544 -24.0824,41.99014 -42.3358,58.37842 -15.1429,13.59558 -32.4759,23.71896 -51.4881,31.08948 -23.9203,9.27325 -48.8361,11.65512 -74.0234,9.69851 -12.3249,-0.95746 -24.4107,-4.99219 -37.0105,-7.66986 M 1095.4937,206 c 4.4285,0 8.857,0 13.5073,0 0,5.299 0.077,9.94864 -0.029,14.59412 -0.061,2.67477 0.5458,3.87155 3.6505,4.60885 6.1022,1.44908 12.5081,3.01435 17.7995,6.18286 10.0644,6.02674 20.0669,10.43817 32.222,8.80217 3.8579,-0.51927 7.9989,1.20984 12.0276,1.79047 18.1381,2.61409 34.8319,9.20941 49.9506,19.33672 9.8468,6.59585 18.9337,14.32592 29.2962,22.26431 -1.0351,-15.47299 -0.9171,-30.89516 -3.3662,-45.89829 -2.9577,-18.11854 -9.8434,-35.13266 -19.2367,-51.14505 -9.1178,-15.54269 -20.7851,-28.88817 -34.1561,-40.59996 -13.6202,-11.93011 -29.1986,-20.91514 -46.2007,-27.63698 -18.8047,-7.43456 -38.3618,-10.15683 -58.2491,-11.14093 -6.6341,-0.32829 -13.362,1.1409 -20.041,1.84475 -15.4725,1.63046 -30.2753,5.98713 -44.3251,12.40207 -21.1736,9.66755 -40.29295,22.50909 -54.94896,40.89494 -7.58307,9.51294 -14.71112,19.52232 -20.90082,29.98419 -12.59594,21.28955 -18.31189,44.92586 -19.17773,69.36545 -0.45355,12.80105 1.58581,25.84591 3.79712,38.5549 5.31817,30.56433 20.14526,56.44675 41.38684,78.70081 14.00189,14.66931 30.51245,25.82104 48.98005,34.39498 20.3189,9.43363 41.6937,13.67148 63.7973,14.54218 7.9798,0.31433 16.051,-0.98947 24.0445,-1.87918 14.9401,-1.663 29.2611,-5.83914 42.8892,-12.06082 23.5472,-10.75 43.5585,-26.09925 59.8808,-46.36051 11.8767,-14.74292 20.7123,-31.02029 26.795,-48.84719 0.4933,-1.44553 0.183,-3.88874 -0.7704,-4.98261 -4.8165,-5.52637 -9.8333,-10.89624 -15.0319,-16.06787 -12.3334,-12.26959 -27.1767,-20.69827 -43.1713,-27.10483 -5.5064,-2.20553 -11.4518,-3.31464 -17.1967,-4.92459 -0.3403,0.6232 -0.6805,1.2464 -1.0207,1.8696 2.7142,2.18332 5.099,5.37927 8.1958,6.38711 21.6083,7.0325 40.5459,17.8722 54.6791,36.14734 3.1644,4.09171 6.6164,7.961 10.1114,12.14237 -23.6697,65.72729 -92.6268,113.83532 -175.9255,99.6875 -65.02273,-11.04364 -111.98871,-63.71082 -122.38916,-113.64383 7.94843,0.93814 15.9137,1.49463 23.73004,2.88721 12.9972,2.3157 25.35022,0.15884 37.58202,-4.06043 2.2946,-0.79154 3.1922,-1.79697 3.4565,-4.40848 0.52,-5.13901 1.5785,-10.25842 2.8311,-15.28201 4.2345,-16.98148 13.0677,-31.27011 26.1098,-42.87055 10.8877,-9.68417 23.6255,-16.11818 37.7881,-19.2696 3.6073,-0.80268 4.2712,-2.01862 4.1739,-5.09891 -0.1456,-4.60152 -0.038,-9.21103 -0.038,-14.10228 5.8851,0 11.1909,0 17.4929,0 m 26.7069,28.05121 c -5.6613,-1.3651 -11.3684,-2.57698 -16.9431,-4.23383 -1.0266,-0.30513 -2.0874,-2.38324 -2.1545,-3.69316 -0.2528,-4.9286 -0.1015,-9.87796 -0.1015,-14.80481 -6.6347,0 -12.6966,0 -19.0013,0 0,5.12946 0.2308,9.96102 -0.1449,14.74489 -0.1084,1.38072 -1.8087,3.58859 -3.0383,3.78375 -14.4838,2.29894 -27.5812,7.89223 -38.5107,17.50734 -22.128,19.46721 -32.499,43.65322 -28.4055,73.53609 2.1518,15.7085 8.6397,29.34131 18.7569,41.07687 13.3722,15.51136 30.6839,24.43369 51.4237,27.3487 0,2.2044 0,4.27826 0,6.39236 6.535,0 12.6129,0 18.9492,0 0,-2.24878 0,-4.2081 0,-6.36914 11.2208,-2.08731 21.7651,-5.21149 31.5347,-11.10489 14.4912,-8.74164 25.3024,-20.7818 32.1063,-35.92431 6.057,-13.48096 8.7442,-27.78867 6.4664,-42.92481 -2.4985,-16.60309 -8.9018,-31.12314 -19.9332,-43.6723 -8.3811,-9.53423 -18.8936,-16.06026 -31.0042,-21.66275 M 974.05241,360.33585 c 1.49072,1.56567 3.10742,3.03067 4.45251,4.7128 11.74463,14.68835 26.19608,26.09359 42.67558,34.95361 25.0676,13.47729 51.6993,20.29761 80.2984,17.94879 8.2955,-0.68131 16.6985,-1.26105 24.7835,-3.08112 28.4606,-6.40698 53.2688,-19.86071 73.8398,-40.62268 6.3361,-6.39483 12.3547,-13.27999 17.4594,-20.67206 5.6371,-8.16305 10.0576,-17.16619 15.3868,-26.46435 -9.6861,0 -18.0012,0 -25.9289,0 -2.9503,5.82849 -5.6426,11.50333 -8.6415,17.01126 -14.1218,25.9372 -34.1101,45.57794 -61.4495,57.46616 -22.4969,9.78253 -45.7575,11.78827 -69.3748,6.05911 -23.6669,-5.74112 -43.5567,-18.16544 -59.9684,-36.40256 -11.49723,-12.77606 -20.4671,-26.91241 -26.85754,-42.80212 -0.42432,-1.05515 -2.00641,-2.30515 -3.07947,-2.33301 -7.6947,-0.20007 -15.39709,-0.10699 -23.09704,-0.10699 -0.41675,0.45404 -0.83356,0.90808 -1.25037,1.36212 6.88,10.75143 13.76007,21.5029 20.75153,32.97104 m 234.00099,-43.75846 c -7.9902,-8.81271 -17.3666,-15.49954 -28.8796,-19.25461 -0.5639,6.47919 0.033,11.31162 6.827,14.60117 5.684,2.75223 10.192,7.93274 15.2712,12.07919 1.5335,-5.56006 6.4933,-1.53872 9.236,-3.51703 -0.6676,-1.17868 -1.297,-2.2901 -2.4546,-3.90872 m -32.1367,18.87778 c -2.7181,3.69827 -1.8589,6.53934 1.4575,9.61423 2.9066,2.695 5.0368,6.22747 7.4348,9.29409 5.9676,-7.54843 5.9441,-9.56652 -0.4491,-16.51736 -2.1174,-2.30197 -4.1851,-4.64963 -6.7087,-7.4585 -0.791,2.05439 -1.2247,3.181 -1.7345,5.06754 m -12.4357,42.55704 c 4.5849,-5.82956 -1.0685,-9.31253 -2.7871,-13.66712 -2.93,2.84806 -5.6667,5.50815 -8.1001,7.87335 1.662,3.54236 3.275,6.98054 4.8949,10.41724 1.8298,-1.36758 3.6597,-2.73514 5.9923,-4.62347 m -146.4095,-27.57776 c -0.8854,-1.83838 -1.7708,-3.67673 -2.5694,-5.33475 -5.3966,1.56201 -10.4031,3.01114 -15.92043,4.60806 1.91483,2.69272 3.62203,5.09351 5.31723,7.47757 4.4845,-1.4837 8.6029,-2.79153 12.6629,-4.26098 0.4909,-0.17771 0.6657,-1.22843 0.5097,-2.4899 m -13.4787,-24.35089 c -5.15773,1.13333 -10.31554,2.26666 -16.96288,3.72732 2.4411,2.18283 4.2915,5.11203 5.77008,4.935 5.85717,-0.70135 11.598,-2.37476 17.2221,-3.65155 -0.4453,-2.44598 -0.7765,-4.2644 -1.1466,-6.29749 -1.5918,0.47507 -2.8171,0.84076 -4.8827,1.28672 m 43.9324,56.84112 c -3.9116,0.93747 -7.8234,1.87491 -12.5817,3.01526 8.377,6.91834 11.956,6.78476 18.8437,0.17209 -1.8697,-1.04111 -3.6879,-2.05359 -6.262,-3.18735 m -30.4935,-14.45959 c -0.4719,0.8779 -1.4052,2.49194 -1.3489,2.52725 2.0294,1.27219 4.2931,3.52908 6.2277,3.28613 3.1672,-0.3977 6.1288,-2.43451 9.489,-3.91769 -1.7222,-2.34274 -3.1444,-4.27753 -4.6601,-6.3393 -3.2099,1.42652 -6.1397,2.72852 -9.7077,4.44361 z"
   id="path83"
   style="fill:#000000;fill-opacity:1" />
<path
   fill="#0077D4"
   opacity="1"
   stroke="none"
   d="m 504.90385,295 c 3e-5,-25.32935 -0.005,-50.15871 0.0108,-74.98807 0.001,-1.65996 -0.17923,-3.44098 0.36136,-4.93545 0.3385,-0.93576 1.87497,-1.99309 2.86362,-1.98305 0.99359,0.0101 2.30108,1.08407 2.8656,2.04681 0.52716,0.89904 0.33074,2.26415 0.33105,3.42414 0.0123,41.65998 0.0276,83.32002 -0.0529,124.97987 -0.003,1.64325 -0.44281,3.86044 -1.54248,4.80563 -2.19854,1.88965 -4.80414,-0.43173 -4.81588,-4.35769 -0.0484,-16.16394 -0.0208,-32.3281 -0.0212,-48.99219 z"
   id="path84"
   style="fill:#000000;fill-opacity:1" />










<path
   fill="#0077D4"
   opacity="1"
   stroke="none"
   d="m 1077.1093,190.23093 c -0.093,-1.9115 0.042,-3.42353 -0.1319,-4.89907 -0.9963,-8.4369 4.4157,-14.38235 13.0686,-16.89723 5.0105,-1.45625 13.8099,1.61577 16.6739,5.89343 4.7387,7.07753 4.6674,16.26825 -0.7905,22.11826 -7.3463,7.87411 -20.5441,7.66762 -26.9087,-2.37433 -0.6907,-1.08972 -1.2217,-2.28071 -1.9114,-3.84106 m 9.9702,3.37503 c 5.0653,3.46058 9.3153,2.91893 13.6571,-0.70365 4.1457,-3.45895 3.9037,-10.57855 2.0092,-13.53972 -2.6939,-4.21052 -8.5804,-6.12053 -13.25,-4.35786 -7.5239,2.84018 -9.0139,11.985 -2.4163,18.60123 z"
   id="path95"
   style="fill:#000000;fill-opacity:1" />
<path
   fill="#0077D4"
   opacity="1"
   stroke="none"
   d="m 1103.0008,290 c 0,-18.81393 0,-37.12788 0,-55.46088 27.1432,2.22194 52.2316,25.90482 57.2114,53.46119 3.9077,21.62341 -0.4843,40.53289 -14.221,57.61331 -9.8293,12.22198 -22.6996,19.16623 -37.4886,23.14575 -4.2328,1.13895 -5.4915,-6.1e-4 -5.4946,-4.78687 -0.015,-24.49084 -0.01,-48.98166 -0.01,-73.9725 m 11.007,12.49014 c -6.1464,1.42734 -5.2798,5.86231 -4.6976,10.6048 15.0496,-6.31906 30.0434,-11.40164 46.9852,-11.19922 -0.491,-3.50647 -0.9259,-6.61322 -1.3597,-9.71097 -14.5318,0.27201 -27.6358,4.12708 -40.9279,10.30539 m 8.3529,21.42874 c -2.8212,0.71131 -5.6339,1.45838 -8.4656,2.12504 -3.6484,0.85882 -5.8462,2.65454 -4.9309,6.84176 0.2413,1.10382 0.037,2.30508 0.037,3.55542 6.4185,-1.50839 12.5813,-3.42346 18.8887,-4.31015 6.5409,-0.91959 13.2219,-0.84302 20.7251,-1.25003 1.1456,-2.54095 2.7207,-6.03452 4.9375,-10.95123 -11.0009,1.26461 -20.7442,2.38467 -31.1914,3.98919 m 4.0434,-55.00061 c -4.082,1.49097 -8.2661,2.7544 -12.2219,4.52716 -5.6997,2.55433 -5.6289,2.71222 -4.6707,9.28278 11.8776,-6.40851 24.3759,-10.50543 38.246,-10.92776 -2.0328,-3.58783 -2.712,-8.21402 -8.8613,-5.91242 -3.7354,1.3981 -7.8701,1.72907 -12.4921,3.03024 m -2.5987,82.14627 c -2.9884,0.66455 -5.9905,1.2739 -8.9626,2.00501 -6.4342,1.5827 -6.4279,1.60824 -5.2054,10.01816 7.3606,-3.66416 14.3607,-7.14884 21.3608,-10.63352 -0.1855,-0.48178 -0.3711,-0.96359 -0.5566,-1.44537 -1.9255,0 -3.8511,0 -6.6362,0.0557 m -14.583,-102.50743 c 3.1521,-0.968 6.304,-1.93602 9.4561,-2.90402 0.05,-0.33813 0.099,-0.67627 0.1486,-1.01439 -3.0647,-0.99861 -6.1294,-1.99721 -9.7998,-3.19319 0,2.72845 0,4.5258 0.1951,7.1116 z"
   id="path96"
   style="fill:#000000;fill-opacity:1" />
<path
   fill="#0077D4"
   opacity="1"
   stroke="none"
   d="m 1084.0008,335 c 0,11.81958 0,23.13916 0,34.48804 -34.9454,-4.33515 -57.0697,-33.29346 -58.9425,-62.57071 -2.4812,-38.78742 25.0685,-68.1323 58.9425,-72.80709 0,33.50991 0,66.94985 0,100.88976 m -6.0017,-91.79384 c -0.4562,-3.83398 -2.8474,-1.02928 -3.7334,-0.73472 -15.1953,5.05178 -26.9552,14.73556 -35.0448,28.33984 -3.6813,6.19076 -5.5061,13.48547 -8.5796,21.31512 2.3132,-0.75494 3.0022,-0.84625 3.5459,-1.17681 13.9749,-8.4968 27.9607,-16.97663 41.8442,-25.62061 1.0402,-0.64768 1.8367,-2.48248 1.8822,-3.79541 0.2015,-5.81302 0.087,-11.63698 0.085,-18.32741 m -29.9965,65.2914 c -4.922,2.41516 -9.8441,4.83035 -15.2737,7.4946 0.4639,1.85672 0.985,3.94299 1.746,6.98968 13.5656,-7.23199 26.267,-14.41263 39.3676,-20.77048 4.7372,-2.29898 4.4237,-5.18362 3.8714,-9.05777 -9.8287,5.03717 -19.457,9.97168 -29.7113,15.34397 m 29.8423,11.02298 c -12.3553,5.36056 -24.7108,10.7211 -37.2058,16.14224 1.9417,2.50913 3.4332,4.43655 5.0012,6.46271 8.9523,-4.09247 17.6763,-8.40308 26.666,-12.06027 4.8205,-1.96106 6.5762,-4.88465 5.5386,-10.54468 m 0.1564,25.89236 c -0.082,-1.40826 -0.1638,-2.81656 -0.2704,-4.64999 -7.8656,3.55911 -15.2906,6.91882 -23.0242,10.41815 1.9778,1.22537 3.492,2.13293 4.9753,3.0885 3.8429,2.47571 17.278,-3.38779 18.3193,-8.85666 z"
   id="path97"
   style="fill:#000000;fill-opacity:1" />










</svg>
